<?xml version="1.0" standalone="no"?>
<!DOCTYPE svg PUBLIC "-//W3C//DTD SVG 20010904//EN"
 "http://www.w3.org/TR/2001/REC-SVG-20010904/DTD/svg10.dtd">
<svg version="1.0" xmlns="http://www.w3.org/2000/svg"
 width="700.000000pt" height="700.000000pt" viewBox="0 0 700.000000 700.000000"
 preserveAspectRatio="xMidYMid meet">
<metadata>
Created by potrace 1.14, written by Peter Selinger 2001-2017
</metadata>
<g transform="translate(0.000000,700.000000) scale(0.100000,-0.100000)"
fill="#000000" stroke="none">
<path d="M1127 6124 c-1 -1 -22 -4 -48 -7 -232 -28 -449 -240 -486 -477 -4
-25 -7 -997 -7 -2160 l0 -2115 22 -70 c65 -206 222 -353 432 -406 46 -11 459
-13 2470 -13 l2415 1 81 26 c94 31 180 84 244 150 51 54 115 154 131 206 36
118 35 101 34 2261 l-1 2115 -22 70 c-65 211 -238 366 -457 412 -24 5 -4802
12 -4808 7z m1788 -1459 l0 -290 -729 0 -728 0 1 240 c0 132 0 263 1 291 l0
52 728 -2 727 -1 0 -290z m2544 -499 l203 -205 -668 -665 c-367 -366 -670
-666 -673 -666 -3 0 -188 186 -413 413 l-407 412 202 202 c111 112 205 203
208 203 3 0 97 -92 209 -205 l204 -204 459 459 c253 253 462 460 466 460 3 0
98 -92 210 -204z m-2543 -666 l0 -290 -206 0 c-818 -1 -1243 0 -1246 3 -4 4
-6 244 -5 455 l1 122 728 0 728 0 0 -290z m0 -1165 l-1 -290 -729 0 -728 0 0
265 c1 146 1 276 2 290 l0 25 728 0 728 0 0 -290z"/>
</g>
</svg>
